# Apple ModelIO OBJ File: dollar_stack
mtllib dollar_stack.mtl
g 
v -6.01104 -0.435865 -2.71063
v 5.91259 -0.435865 -2.71502
v 5.99189 -0.435865 2.03175
v -5.91295 -0.435865 2.11779
vn -0.616284 -0.505107 -0.604202
vn 0.599642 -0.519967 -0.608329
vn 0.564873 -0.61878 0.545921
vn -0.561024 -0.597423 0.573007
vt 0 0
vt 1 0
vt 1 1
vt 0 1
usemtl material_1
f 1/1/1 2/2/2 3/3/3 4/4/4 
s off
g _1
v 5.86397 2.44463 2.46606
v 5.82896 2.44463 -2.73511
v -5.62208 2.44463 -2.45808
v -5.62917 2.44463 2.30557
vn 0.6051 0.540245 0.584798
vn 0.548832 0.623519 -0.556783
vn -0.544245 0.647376 -0.533575
vn -0.580865 0.557337 0.593272
vt 1 1
vt 1 0
vt 0 0
vt 0 1
usemtl material_2
f 5/5/5 6/6/6 7/7/7 8/8/8 
s off
g _2
v 5.86397 2.44463 2.46606
v -5.62917 2.44463 2.30557
v -5.91295 -0.435865 2.11779
v 5.99189 -0.435865 2.03175
v 5.91259 -0.435865 -2.71502
v 5.82896 2.44463 -2.73511
v -5.62208 2.44463 -2.45808
v -6.01104 -0.435865 -2.71063
vn 0.6051 0.540245 0.584798
vn -0.580865 0.557337 0.593272
vn -0.561024 -0.597423 0.573007
vn 0.564873 -0.61878 0.545921
vn 0.599642 -0.519967 -0.608329
vn 0.548832 0.623519 -0.556783
vn -0.544245 0.647376 -0.533575
vn -0.616284 -0.505107 -0.604202
vt 1 1
vt 0 1
vt 1 0
vt 0 0
usemtl material_3
f 9/9/9 10/10/10 11/10/11 12/9/12 
f 13/11/13 14/11/14 9/9/9 12/9/12 
f 15/12/15 14/11/14 13/11/13 16/12/16 
f 10/10/10 15/12/15 16/12/16 11/10/11 
s off
g _3
v 5.8976 -0.303023 2.12869
v 5.40032 -0.303023 -2.76974
v -5.82377 -0.303023 -2.47541
v -5.86924 -0.303023 2.52841
v -5.8277 -0.181031 -2.46134
v -5.6211 -0.181031 2.54895
v 6.32086 -0.181031 2.06807
v 5.47741 -0.181031 -2.92504
v -5.96314 -0.242027 -3.02456
v -6.28975 -0.242027 1.75246
v 5.68033 -0.242027 2.66222
v 5.81629 -0.242027 -2.3399
v 6.05667 -0.0590395 1.83184
v 5.68948 -0.0590395 -3.2882
v -5.97376 -0.0590395 -2.19274
v -5.52806 -0.0590395 2.9008
v -5.90991 0.0629522 -2.19429
v -5.40538 0.0629522 2.96247
v 6.17452 0.0629522 1.92847
v 5.38233 0.0629522 -3.27897
v -5.55912 0.00195635 -3.00581
v -5.81634 0.00195635 2.22911
v 5.46091 0.00195635 2.78324
v 5.71852 0.00195635 -2.809
v 5.9991 -0.120035 2.48424
v 5.95541 -0.120035 -2.09805
v -5.64293 -0.120035 -2.52619
v -5.20584 -0.120035 2.53865
v 5.75543 0.164612 2.3156
v 6.00039 0.164612 -2.51947
v -6.13603 0.164612 -2.5002
v -5.79376 0.164612 2.52857
v -5.79844 0.286604 -2.81606
v -5.87617 0.286604 2.49849
v 5.76238 0.286604 2.08577
v 5.84222 0.286604 -2.59042
v -5.85693 0.225608 -3.53573
v -6.00919 0.225608 1.8827
v 5.50046 0.225608 2.74765
v 5.77141 0.225608 -2.23776
v 5.91364 0.408595 2.2576
v 5.66296 0.408595 -2.93943
v -5.94713 0.408595 -2.30405
v -5.76679 0.408595 2.63581
v -5.81276 0.530587 -2.48291
v -5.49707 0.530587 2.83001
v 6.00746 0.530587 2.20709
v 5.82878 0.530587 -2.83832
v -5.97114 0.469591 -2.90788
v -5.96859 0.469591 2.18364
v 5.88436 0.469591 2.26227
v 5.79097 0.469591 -2.63806
v 5.91923 0.3476 2.64452
v 6.08797 0.3476 -1.91018
v -5.61687 0.3476 -2.64518
v -6.02795 0.3476 2.03386
v 5.66589 0.103616 2.87665
v 6.3676 0.103616 -1.80982
v -5.51838 0.103616 -3.32353
v -5.82908 0.103616 1.9513
v -5.69937 1.56185 -2.23126
v -5.64049 1.56185 2.5895
v 6.3212 1.56185 2.15321
v 5.80634 1.56185 -3.03986
v 5.81643 1.68384 1.95236
v 5.54238 1.68384 -2.93577
v -5.7817 1.68384 -2.19653
v -5.77644 1.68384 2.51245
v 5.98637 1.62284 2.46727
v 6.21364 1.62284 -2.13499
v -5.51999 1.62284 -2.72677
v -5.68662 1.62284 2.06969
v -5.49784 1.80583 -2.48304
v -5.5287 1.80583 2.79012
v 5.95941 1.80583 1.90548
v 5.95654 1.80583 -2.89419
v 6.27476 1.92782 1.90086
v 5.70905 1.92782 -2.93543
v -6.11938 1.92782 -2.22673
v -5.7816 1.92782 2.71757
v 6.01589 1.86683 2.56919
v 5.93678 1.86683 -2.77746
v -5.64913 1.86683 -2.68564
v -5.80505 1.86683 2.39597
v -6.15291 1.74484 -2.58472
v -5.93547 1.74484 2.47974
v 5.87688 1.74484 1.93752
v 5.79021 1.74484 -2.51427
v -5.91323 2.02948 -1.87766
v -5.65457 2.02948 2.19716
v 6.06154 2.02948 2.12919
v 5.96902 2.02948 -2.56301
v 5.91886 2.15147 2.44123
v 5.61942 2.15147 -2.83467
v -5.89215 2.15147 -2.48275
v -5.8672 2.15147 2.56107
v 5.84431 2.09048 3.0265
v 6.16586 2.09048 -2.12754
v -5.57272 2.09048 -2.90167
v -5.66899 2.09048 1.9261
v -5.83517 2.27347 -2.33228
v -5.56617 2.27347 2.76179
v 6.06462 2.27347 1.92999
v 6.03567 2.27347 -2.67028
v 5.95545 2.39546 1.85754
v 5.73605 2.39546 -2.89924
v -5.87746 2.39546 -2.38382
v -5.98795 2.39546 2.5808
v 5.99393 2.33446 2.87747
v 5.97503 2.33446 -2.49348
v -5.19645 2.33446 -2.53444
v -5.65086 2.33446 2.41082
v -5.7341 2.21247 -3.03308
v -5.94623 2.21247 1.54307
v 5.85099 2.21247 2.31747
v 5.89886 2.21247 -2.45722
v -5.70536 1.96849 -2.93006
v -6.18683 1.96849 1.78666
v 5.39209 1.96849 2.72003
v 5.53236 1.96849 -2.4204
v -5.76598 1.50085 -2.94093
v -6.36722 1.50085 1.94894
v 5.55895 1.50085 2.45889
v 5.92508 1.50085 -2.04403
v -5.83702 0.640099 -2.42376
v -5.3972 0.640099 2.46612
v 6.04383 0.640099 2.41171
v 6.08548 0.640099 -2.74168
v 6.00123 0.762091 2.17094
v 5.2196 0.762091 -2.68573
v -5.99644 0.762091 -2.61348
v -5.96835 0.762091 2.47452
v 5.63858 0.701095 2.70406
v 6.32947 0.701095 -1.97122
v -5.23693 0.701095 -2.71652
v -6.00439 0.701095 2.03488
v -5.75684 0.884082 -2.41709
v -5.38621 0.884082 2.85401
v 6.0225 0.884082 1.9117
v 5.86803 0.884082 -3.06473
v 6.22264 1.00607 1.61539
v 5.55161 1.00607 -3.0577
v -6.00941 1.00607 -2.67257
v -5.82395 1.00607 2.74316
v 6.27193 0.945078 2.56842
v 6.01838 0.945078 -2.58263
v -5.53663 0.945078 -2.4211
v -5.67667 0.945078 2.45314
v -5.84815 0.823087 -2.6338
v -6.02028 0.823087 2.40472
v 5.72906 0.823087 2.18507
v 5.90878 0.823087 -2.82145
v -5.80854 1.10773 -2.39598
v -5.54556 1.10773 2.61587
v 6.2828 1.10773 2.31029
v 6.113 1.10773 -2.57859
v 5.71745 1.22973 2.02163
v 5.6811 1.22973 -2.57558
v -6.20652 1.22973 -2.8011
v -5.95549 1.22973 2.10026
v 5.85427 1.16873 2.95996
v 6.24928 1.16873 -1.85702
v -5.67032 1.16873 -2.71305
v -6.25858 1.16873 2.20437
v -5.65058 1.35172 -2.34874
v -5.60688 1.35172 2.6592
v 5.94167 1.35172 1.61705
v 5.70527 1.35172 -2.59348
v 5.9405 1.47371 2.03085
v 5.58446 1.47371 -2.99106
v -6.37676 1.47371 -2.38914
v -5.75725 1.47371 2.60943
v 6.0433 1.41271 2.50298
v 6.26554 1.41271 -2.15413
v -5.6786 1.41271 -2.50897
v -5.8232 1.41271 2.30575
v -5.89797 1.29072 -2.97441
v -6.08158 1.29072 1.70552
v 5.79393 1.29072 2.54573
v 6.32372 1.29072 -2.26735
v -5.71749 1.04674 -3.17274
v -6.41257 1.04674 1.74275
v 5.73368 1.04674 2.31367
v 5.8508 1.04674 -1.95987
v -5.43326 0.579103 -3.12173
v -5.83565 0.579103 1.83341
v 5.53927 0.579103 2.28473
v 5.82762 0.579103 -2.28157
v 5.95216 -0.364018 2.78357
v 6.11817 -0.364018 -2.11228
v -5.48103 -0.364018 -2.42367
v -5.76855 -0.364018 2.37806
vn 0 1 -0
vt 1 1
vt 1 0
vt 0 0
vt 0 1
usemtl material_4
f 17/13/17 18/14/17 19/15/17 20/16/17 
f 21/13/17 22/14/17 23/15/17 24/16/17 
f 25/13/17 26/14/17 27/15/17 28/16/17 
f 29/13/17 30/14/17 31/15/17 32/16/17 
f 33/13/17 34/14/17 35/15/17 36/16/17 
f 37/13/17 38/14/17 39/15/17 40/16/17 
f 41/13/17 42/14/17 43/15/17 44/16/17 
f 45/13/17 46/14/17 47/15/17 48/16/17 
f 49/13/17 50/14/17 51/15/17 52/16/17 
f 53/13/17 54/14/17 55/15/17 56/16/17 
f 57/13/17 58/14/17 59/15/17 60/16/17 
f 61/13/17 62/14/17 63/15/17 64/16/17 
f 65/13/17 66/14/17 67/15/17 68/16/17 
f 69/13/17 70/14/17 71/15/17 72/16/17 
f 73/13/17 74/14/17 75/15/17 76/16/17 
f 77/13/17 78/14/17 79/15/17 80/16/17 
f 81/13/17 82/14/17 83/15/17 84/16/17 
f 85/13/17 86/14/17 87/15/17 88/16/17 
f 89/13/17 90/14/17 91/15/17 92/16/17 
f 93/13/17 94/14/17 95/15/17 96/16/17 
f 97/13/17 98/14/17 99/15/17 100/16/17 
f 101/13/17 102/14/17 103/15/17 104/16/17 
f 105/13/17 106/14/17 107/15/17 108/16/17 
f 109/13/17 110/14/17 111/15/17 112/16/17 
f 113/13/17 114/14/17 115/15/17 116/16/17 
f 117/13/17 118/14/17 119/15/17 120/16/17 
f 121/13/17 122/14/17 123/15/17 124/16/17 
f 125/13/17 126/14/17 127/15/17 128/16/17 
f 129/13/17 130/14/17 131/15/17 132/16/17 
f 133/13/17 134/14/17 135/15/17 136/16/17 
f 137/13/17 138/14/17 139/15/17 140/16/17 
f 141/13/17 142/14/17 143/15/17 144/16/17 
f 145/13/17 146/14/17 147/15/17 148/16/17 
f 149/13/17 150/14/17 151/15/17 152/16/17 
f 153/13/17 154/14/17 155/15/17 156/16/17 
f 157/13/17 158/14/17 159/15/17 160/16/17 
f 161/13/17 162/14/17 163/15/17 164/16/17 
f 165/13/17 166/14/17 167/15/17 168/16/17 
f 169/13/17 170/14/17 171/15/17 172/16/17 
f 173/13/17 174/14/17 175/15/17 176/16/17 
f 177/13/17 178/14/17 179/15/17 180/16/17 
f 181/13/17 182/14/17 183/15/17 184/16/17 
f 185/13/17 186/14/17 187/15/17 188/16/17 
f 189/13/17 190/14/17 191/15/17 192/16/17 
f 193/13/17 194/14/17 195/15/17 196/16/17 
f 197/13/17 198/14/17 199/15/17 200/16/17 
f 201/13/17 202/14/17 203/15/17 204/16/17 
f 205/13/17 206/14/17 207/15/17 208/16/17 
s off
